<svg width="24" height="24" viewBox="0 0 24 24" fill="none" xmlns="http://www.w3.org/2000/svg">
<g id="fi-rr-volume" clip-path="url(#clip0_10_35)">
<path id="Vector" d="M20.8068 4.29052C20.7139 4.19761 20.6036 4.12391 20.4822 4.07363C20.3608 4.02335 20.2307 3.99747 20.0993 3.99747C19.9679 3.99747 19.8378 4.02335 19.7164 4.07363C19.595 4.12391 19.4847 4.19761 19.3918 4.29052C19.2989 4.38343 19.2252 4.49373 19.1749 4.61513C19.1246 4.73652 19.0987 4.86663 19.0987 4.99802C19.0987 5.12942 19.1246 5.25953 19.1749 5.38092C19.2252 5.50231 19.2989 5.61261 19.3918 5.70552C21.0588 7.37643 21.9949 9.64029 21.9949 12.0005C21.9949 14.3608 21.0588 16.6246 19.3918 18.2955C19.2042 18.4832 19.0987 18.7377 19.0987 19.003C19.0987 19.2684 19.2042 19.5229 19.3918 19.7105C19.5794 19.8982 19.8339 20.0036 20.0993 20.0036C20.3647 20.0036 20.6191 19.8982 20.8068 19.7105C22.8486 17.6641 23.9952 14.8913 23.9952 12.0005C23.9952 9.10972 22.8486 6.33695 20.8068 4.29052Z" fill="#FAFDFF"/>
<path id="Vector_2" d="M18.1002 7.29078C18.0073 7.19754 17.8969 7.12352 17.7754 7.07293C17.6539 7.02235 17.5236 6.99619 17.392 6.99596C17.2603 6.99573 17.13 7.02142 17.0083 7.07158C16.8866 7.12174 16.7759 7.19537 16.6827 7.28828C16.5895 7.38119 16.5154 7.49156 16.4649 7.61307C16.4143 7.73459 16.3881 7.86489 16.3879 7.99651C16.3876 8.12814 16.4133 8.25852 16.4635 8.38022C16.5137 8.50192 16.5873 8.61254 16.6802 8.70578C17.553 9.57987 18.0431 10.7646 18.0431 11.9998C18.0431 13.235 17.553 14.4197 16.6802 15.2938C16.5873 15.387 16.5137 15.4976 16.4635 15.6193C16.4133 15.741 16.3876 15.8714 16.3879 16.003C16.3881 16.1347 16.4143 16.265 16.4649 16.3865C16.5154 16.508 16.5895 16.6184 16.6827 16.7113C16.871 16.8989 17.1261 17.0041 17.392 17.0036C17.5236 17.0034 17.6539 16.9772 17.7754 16.9266C17.8969 16.876 18.0073 16.802 18.1002 16.7088C19.3475 15.459 20.0481 13.7655 20.0481 11.9998C20.0481 10.2341 19.3475 8.54052 18.1002 7.29078Z" fill="#FAFDFF"/>
<path id="Vector_3" d="M13.82 0.200218C10.7793 0.771486 8.07468 2.49007 6.266 5.00022H5C3.67457 5.00233 2.40403 5.5298 1.4668 6.46702C0.529579 7.40424 0.00211562 8.67479 0 10.0002L0 14.0002C0.00211562 15.3257 0.529579 16.5962 1.4668 17.5334C2.40403 18.4706 3.67457 18.9981 5 19.0002H6.266C8.07504 21.51 10.7795 23.2285 13.82 23.8002C13.8796 23.8119 13.9403 23.8176 14.001 23.8172C14.2662 23.8172 14.5206 23.7119 14.7081 23.5243C14.8956 23.3368 15.001 23.0824 15.001 22.8172V1.18622C15.0014 1.03935 14.9694 0.894208 14.9073 0.7611C14.8453 0.627993 14.7546 0.51019 14.6419 0.416066C14.5292 0.321941 14.3971 0.253804 14.255 0.216499C14.113 0.179193 13.9644 0.173635 13.82 0.200218ZM13 21.5352C10.7944 20.8321 8.89788 19.3915 7.629 17.4552C7.53834 17.3157 7.41432 17.2011 7.26817 17.1216C7.12201 17.0422 6.95835 17.0005 6.792 17.0002H5C4.20435 17.0002 3.44129 16.6841 2.87868 16.1215C2.31607 15.5589 2 14.7959 2 14.0002V10.0002C2 9.20457 2.31607 8.44151 2.87868 7.8789C3.44129 7.31629 4.20435 7.00022 5 7.00022H6.8C6.96617 7.0002 7.12971 6.95877 7.27585 6.87967C7.42198 6.80058 7.54611 6.68632 7.637 6.54722C8.90329 4.61145 10.7969 3.17016 13 2.46522V21.5352Z" fill="#FBFBFB"/>
</g>
<defs>
<clipPath id="clip0_10_35">
<rect width="24" height="24" fill="white"/>
</clipPath>
</defs>
</svg>
